# xmcd
#
# Track frame offsets:
#	150
#	2767
#	22861
#	36263
#	62562
#	83927
#	95855
#	114556
#	131130
#	151898
#	172070
#	192718
#	212787
#
# Disc length: 3297 seconds
#
# Revision: 0
# Processed by: cddbd v1.5.2PL0 Copyright (c) Steve Scherf et al.
# Submitted via: dBpowerAMP V4.0
#
DISCID=b50cdf0d
DTITLE=Stephanie White and The Philth Harmonic - This Is Why We Can't Have Nice Things [Version 1]
DYEAR=2009
DGENRE=Soul Rock
TTITLE0=Intro
TTITLE1=Selfish Fool
TTITLE2=Figure it Out
TTITLE3=Broken
TTITLE4=Prove It
TTITLE5=Cheat on my Bffl
TTITLE6=Can't Get You Outta my Head
TTITLE7=Blissful Ignorance
TTITLE8=Fill Your Head
TTITLE9=Teardrops [Full Band Version]
TTITLE10=Trying to Dream For You
TTITLE11=King of Wishful Thinking
TTITLE12=Emerald City Blues
EXTD=Second release from songwriters Stephanie White and Robbie LaFalce.\nwww.myspace.com/PhilthHarmonic
EXTT0=
EXTT1=
EXTT2=
EXTT3=
EXTT4=
EXTT5=
EXTT6=
EXTT7=
EXTT8=
EXTT9=
EXTT10=
EXTT11=
EXTT12=
PLAYORDER=
